<?xml version="1.0" encoding="UTF-8"?>
<svg xmlns="http://www.w3.org/2000/svg" width="1584" height="396" viewBox="0 0 1584 396">
  <defs>
    <filter id="glow" x="-80%" y="-80%" width="260%" height="260%">
      <feGaussianBlur stdDeviation="6" result="b"/>
      <feMerge><feMergeNode in="b"/><feMergeNode in="SourceGraphic"/></feMerge>
    </filter>
    <linearGradient id="fadeLeft" x1="0%" y1="0%" x2="100%" y2="0%">
      <stop offset="0%" style="stop-color:#09090b;stop-opacity:1"/>
      <stop offset="55%" style="stop-color:#09090b;stop-opacity:0.98"/>
      <stop offset="72%" style="stop-color:#09090b;stop-opacity:0.75"/>
      <stop offset="100%" style="stop-color:#09090b;stop-opacity:0"/>
    </linearGradient>
    <linearGradient id="glassSheen" x1="0%" y1="0%" x2="100%" y2="100%">
      <stop offset="0%" style="stop-color:#f59e0b;stop-opacity:0.06"/>
      <stop offset="50%" style="stop-color:#ffffff;stop-opacity:0.03"/>
      <stop offset="100%" style="stop-color:#f59e0b;stop-opacity:0.1"/>
    </linearGradient>
    <radialGradient id="spotR" cx="92%" cy="45%" r="45%">
      <stop offset="0%" style="stop-color:#f59e0b;stop-opacity:0.14"/>
      <stop offset="100%" style="stop-color:#09090b;stop-opacity:0"/>
    </radialGradient>
  </defs>

  <rect width="100%" height="100%" fill="#09090b"/>
  <rect width="100%" height="100%" fill="url(#spotR)"/>

  <path d="M 1020 320 C 1120 280, 1240 200, 1320 120" fill="none" stroke="rgba(245,158,11,0.65)" stroke-width="1.2" opacity="0.45"/><path d="M 1020 320 C 1120 280, 1240 200, 1320 120" fill="none" stroke="rgba(245,158,11,0.28)" stroke-width="3" opacity="0.2" filter="url(#glow)"/><path d="M 1040 340 C 1160 300, 1280 240, 1400 140" fill="none" stroke="rgba(245,158,11,0.65)" stroke-width="1.2" opacity="0.45"/><path d="M 1040 340 C 1160 300, 1280 240, 1400 140" fill="none" stroke="rgba(245,158,11,0.28)" stroke-width="3" opacity="0.2" filter="url(#glow)"/><path d="M 1000 300 C 1100 260, 1200 180, 1280 100" fill="none" stroke="rgba(245,158,11,0.65)" stroke-width="1.2" opacity="0.45"/><path d="M 1000 300 C 1100 260, 1200 180, 1280 100" fill="none" stroke="rgba(245,158,11,0.28)" stroke-width="3" opacity="0.2" filter="url(#glow)"/><path d="M 1060 360 C 1180 320, 1300 260, 1420 180" fill="none" stroke="rgba(245,158,11,0.65)" stroke-width="1.2" opacity="0.45"/><path d="M 1060 360 C 1180 320, 1300 260, 1420 180" fill="none" stroke="rgba(245,158,11,0.28)" stroke-width="3" opacity="0.2" filter="url(#glow)"/>
  
  <rect x="1040" y="24" width="524" height="348" rx="12" fill="rgba(24,24,27,0.55)" stroke="#27272a" stroke-width="1" opacity="0.85"/>
  <rect x="1060" y="40" width="504" height="316" fill="url(#glassSheen)" opacity="0.4"/><line x1="1180" y1="88" x2="1280" y2="72" stroke="rgba(245,158,11,0.65)" stroke-width="1.4" opacity="0.7"/><line x1="1180" y1="88" x2="1280" y2="72" stroke="rgba(245,158,11,0.28)" stroke-width="4" opacity="0.25" filter="url(#glow)"/><line x1="1280" y1="72" x2="1380" y2="110" stroke="rgba(245,158,11,0.65)" stroke-width="1.4" opacity="0.7"/><line x1="1280" y1="72" x2="1380" y2="110" stroke="rgba(245,158,11,0.28)" stroke-width="4" opacity="0.25" filter="url(#glow)"/><line x1="1380" y1="110" x2="1480" y2="160" stroke="rgba(245,158,11,0.65)" stroke-width="1.4" opacity="0.7"/><line x1="1380" y1="110" x2="1480" y2="160" stroke="rgba(245,158,11,0.28)" stroke-width="4" opacity="0.25" filter="url(#glow)"/><line x1="1280" y1="72" x2="1120" y2="160" stroke="rgba(245,158,11,0.65)" stroke-width="1.4" opacity="0.7"/><line x1="1280" y1="72" x2="1120" y2="160" stroke="rgba(245,158,11,0.28)" stroke-width="4" opacity="0.25" filter="url(#glow)"/><line x1="1120" y1="160" x2="1180" y2="88" stroke="rgba(245,158,11,0.65)" stroke-width="1.4" opacity="0.7"/><line x1="1120" y1="160" x2="1180" y2="88" stroke="rgba(245,158,11,0.28)" stroke-width="4" opacity="0.25" filter="url(#glow)"/><line x1="1280" y1="72" x2="1320" y2="180" stroke="rgba(245,158,11,0.65)" stroke-width="1.4" opacity="0.7"/><line x1="1280" y1="72" x2="1320" y2="180" stroke="rgba(245,158,11,0.28)" stroke-width="4" opacity="0.25" filter="url(#glow)"/><line x1="1320" y1="180" x2="1420" y2="200" stroke="rgba(245,158,11,0.65)" stroke-width="1.4" opacity="0.7"/><line x1="1320" y1="180" x2="1420" y2="200" stroke="rgba(245,158,11,0.28)" stroke-width="4" opacity="0.25" filter="url(#glow)"/><line x1="1420" y1="200" x2="1480" y2="160" stroke="rgba(245,158,11,0.65)" stroke-width="1.4" opacity="0.7"/><line x1="1420" y1="200" x2="1480" y2="160" stroke="rgba(245,158,11,0.28)" stroke-width="4" opacity="0.25" filter="url(#glow)"/><line x1="1320" y1="180" x2="1240" y2="220" stroke="rgba(245,158,11,0.65)" stroke-width="1.4" opacity="0.7"/><line x1="1320" y1="180" x2="1240" y2="220" stroke="rgba(245,158,11,0.28)" stroke-width="4" opacity="0.25" filter="url(#glow)"/><line x1="1240" y1="220" x2="1360" y2="280" stroke="rgba(245,158,11,0.65)" stroke-width="1.4" opacity="0.7"/><line x1="1240" y1="220" x2="1360" y2="280" stroke="rgba(245,158,11,0.28)" stroke-width="4" opacity="0.25" filter="url(#glow)"/><line x1="1360" y1="280" x2="1450" y2="320" stroke="rgba(245,158,11,0.65)" stroke-width="1.4" opacity="0.7"/><line x1="1360" y1="280" x2="1450" y2="320" stroke="rgba(245,158,11,0.28)" stroke-width="4" opacity="0.25" filter="url(#glow)"/><line x1="1420" y1="200" x2="1500" y2="260" stroke="rgba(245,158,11,0.65)" stroke-width="1.4" opacity="0.7"/><line x1="1420" y1="200" x2="1500" y2="260" stroke="rgba(245,158,11,0.28)" stroke-width="4" opacity="0.25" filter="url(#glow)"/><line x1="1500" y1="260" x2="1450" y2="320" stroke="rgba(245,158,11,0.65)" stroke-width="1.4" opacity="0.7"/><line x1="1500" y1="260" x2="1450" y2="320" stroke="rgba(245,158,11,0.28)" stroke-width="4" opacity="0.25" filter="url(#glow)"/><line x1="1380" y1="110" x2="1320" y2="180" stroke="rgba(245,158,11,0.65)" stroke-width="1.4" opacity="0.7"/><line x1="1380" y1="110" x2="1320" y2="180" stroke="rgba(245,158,11,0.28)" stroke-width="4" opacity="0.25" filter="url(#glow)"/><line x1="1240" y1="220" x2="1200" y2="300" stroke="rgba(245,158,11,0.65)" stroke-width="1.4" opacity="0.7"/><line x1="1240" y1="220" x2="1200" y2="300" stroke="rgba(245,158,11,0.28)" stroke-width="4" opacity="0.25" filter="url(#glow)"/><line x1="1200" y1="300" x2="1360" y2="280" stroke="rgba(245,158,11,0.65)" stroke-width="1.4" opacity="0.7"/><line x1="1200" y1="300" x2="1360" y2="280" stroke="rgba(245,158,11,0.28)" stroke-width="4" opacity="0.25" filter="url(#glow)"/><circle cx="1180" cy="88" r="15" fill="rgba(245,158,11,0.28)" opacity="0.35" filter="url(#glow)"/><circle cx="1180" cy="88" r="5" fill="#09090b" stroke="#f59e0b" stroke-width="1.5"/><circle cx="1180" cy="88" r="3.5" fill="rgba(245,158,11,0.12)"/><circle cx="1280" cy="72" r="16" fill="rgba(245,158,11,0.28)" opacity="0.35" filter="url(#glow)"/><circle cx="1280" cy="72" r="6" fill="#09090b" stroke="#f59e0b" stroke-width="1.5"/><circle cx="1280" cy="72" r="4.5" fill="rgba(245,158,11,0.12)"/><circle cx="1380" cy="110" r="15" fill="rgba(245,158,11,0.28)" opacity="0.35" filter="url(#glow)"/><circle cx="1380" cy="110" r="5" fill="#09090b" stroke="#f59e0b" stroke-width="1.5"/><circle cx="1380" cy="110" r="3.5" fill="rgba(245,158,11,0.12)"/><circle cx="1320" cy="180" r="17" fill="rgba(245,158,11,0.28)" opacity="0.35" filter="url(#glow)"/><circle cx="1320" cy="180" r="7" fill="#09090b" stroke="#f59e0b" stroke-width="1.5"/><circle cx="1320" cy="180" r="5.5" fill="rgba(245,158,11,0.12)"/><circle cx="1420" cy="200" r="15" fill="rgba(245,158,11,0.28)" opacity="0.35" filter="url(#glow)"/><circle cx="1420" cy="200" r="5" fill="#09090b" stroke="#f59e0b" stroke-width="1.5"/><circle cx="1420" cy="200" r="3.5" fill="rgba(245,158,11,0.12)"/><circle cx="1240" cy="220" r="16" fill="rgba(245,158,11,0.28)" opacity="0.35" filter="url(#glow)"/><circle cx="1240" cy="220" r="6" fill="#09090b" stroke="#f59e0b" stroke-width="1.5"/><circle cx="1240" cy="220" r="4.5" fill="rgba(245,158,11,0.12)"/><circle cx="1360" cy="280" r="15" fill="rgba(245,158,11,0.28)" opacity="0.35" filter="url(#glow)"/><circle cx="1360" cy="280" r="5" fill="#09090b" stroke="#f59e0b" stroke-width="1.5"/><circle cx="1360" cy="280" r="3.5" fill="rgba(245,158,11,0.12)"/><circle cx="1480" cy="160" r="14" fill="rgba(245,158,11,0.28)" opacity="0.35" filter="url(#glow)"/><circle cx="1480" cy="160" r="4" fill="#09090b" stroke="#f59e0b" stroke-width="1.5"/><circle cx="1480" cy="160" r="2.5" fill="rgba(245,158,11,0.12)"/><circle cx="1500" cy="260" r="14" fill="rgba(245,158,11,0.28)" opacity="0.35" filter="url(#glow)"/><circle cx="1500" cy="260" r="4" fill="#09090b" stroke="#f59e0b" stroke-width="1.5"/><circle cx="1500" cy="260" r="2.5" fill="rgba(245,158,11,0.12)"/><circle cx="1120" cy="160" r="14" fill="rgba(245,158,11,0.28)" opacity="0.35" filter="url(#glow)"/><circle cx="1120" cy="160" r="4" fill="#09090b" stroke="#f59e0b" stroke-width="1.5"/><circle cx="1120" cy="160" r="2.5" fill="rgba(245,158,11,0.12)"/><circle cx="1200" cy="300" r="15" fill="rgba(245,158,11,0.28)" opacity="0.35" filter="url(#glow)"/><circle cx="1200" cy="300" r="5" fill="#09090b" stroke="#f59e0b" stroke-width="1.5"/><circle cx="1200" cy="300" r="3.5" fill="rgba(245,158,11,0.12)"/><circle cx="1450" cy="320" r="14" fill="rgba(245,158,11,0.28)" opacity="0.35" filter="url(#glow)"/><circle cx="1450" cy="320" r="4" fill="#09090b" stroke="#f59e0b" stroke-width="1.5"/><circle cx="1450" cy="320" r="2.5" fill="rgba(245,158,11,0.12)"/>

  <rect x="0" y="0" width="919" height="396" fill="url(#fadeLeft)"/>
</svg>