<?xml version="1.0" encoding="UTF-8"?>
<svg xmlns="http://www.w3.org/2000/svg" width="1200" height="630" viewBox="0 0 1200 630">
  <defs>
    <pattern id="grid" width="20" height="20" patternUnits="userSpaceOnUse">
      <path d="M 20 0 L 0 0 0 20" fill="none" stroke="#f59e0b" stroke-width="0.3" opacity="0.06"/>
    </pattern>
    <linearGradient id="glow" x1="100%" y1="0%" x2="0%" y2="100%">
      <stop offset="0%" style="stop-color:#f59e0b;stop-opacity:0.06"/>
      <stop offset="100%" style="stop-color:#f59e0b;stop-opacity:0"/>
    </linearGradient>
  </defs>
  <rect width="100%" height="100%" fill="#09090b"/>
  <rect width="100%" height="100%" fill="url(#grid)"/>
  <rect width="100%" height="100%" fill="url(#glow)"/>
  <rect x="24" y="24" width="1152" height="582" rx="4" fill="none" stroke="#27272a" stroke-width="1.5"/>
  <line x1="24" y1="96" x2="1176" y2="96" stroke="#f59e0b" stroke-width="1" opacity="0.45"/>
  <text x="48" y="72" fill="#f59e0b" font-family="Consolas, Courier New, Menlo, monospace" font-size="10" font-weight="600" letter-spacing="0.2em">SOVEREIGN INGESTION · PART 11</text>
  <text x="48" y="152" fill="#f4f4f5" font-family="Segoe UI, Helvetica Neue, Arial, sans-serif" font-size="32" font-weight="700">Terminal UX narrative</text>
  <text x="48" y="188" fill="#a1a1aa" font-family="Segoe UI, Helvetica Neue, Arial, sans-serif" font-size="14">#f59e0b accent · no fintech-blue defaults</text>
  
  <rect x="200" y="270" width="800" height="240" rx="8" fill="#0a0a0a" stroke="#27272a" stroke-width="1"/>
  <rect x="240" y="300" width="720" height="32" rx="2" fill="#141414" stroke="#27272a"/>
  <text x="260" y="322" fill="#f59e0b" font-family="Consolas, Courier New, Menlo, monospace" font-size="10" font-weight="600" letter-spacing="0.12em">var(--accent-warm) · TERMINAL DENSITY</text>
  <line x1="240" y1="360" x2="960" y2="360" stroke="#27272a" stroke-width="1"/>
  <line x1="240" y1="400" x2="720" y2="400" stroke="#27272a" stroke-width="1"/>
  <line x1="240" y1="440" x2="880" y2="440" stroke="#27272a" stroke-width="1"/>
  <text x="260" y="480" fill="#71717a" font-family="Consolas, Courier New, Menlo, monospace" font-size="9">exclude bg-blue-500 · #0070f3 gradients</text>
  <text x="48" y="598" fill="#71717a" font-family="Consolas, Courier New, Menlo, monospace" font-size="9" letter-spacing="0.06em">POCKET PORTFOLIO · SOVEREIGN INGESTION &amp; STATELESS INFERENCE</text>
</svg>