<?xml version="1.0" encoding="UTF-8"?>
<svg xmlns="http://www.w3.org/2000/svg" width="1200" height="630" viewBox="0 0 1200 630">
  <defs>
    <pattern id="grid" width="20" height="20" patternUnits="userSpaceOnUse">
      <path d="M 20 0 L 0 0 0 20" fill="none" stroke="#f59e0b" stroke-width="0.3" opacity="0.06"/>
    </pattern>
    <linearGradient id="glow" x1="100%" y1="0%" x2="0%" y2="100%">
      <stop offset="0%" style="stop-color:#f59e0b;stop-opacity:0.06"/>
      <stop offset="100%" style="stop-color:#f59e0b;stop-opacity:0"/>
    </linearGradient>
  </defs>
  <rect width="100%" height="100%" fill="#09090b"/>
  <rect width="100%" height="100%" fill="url(#grid)"/>
  <rect width="100%" height="100%" fill="url(#glow)"/>
  <rect x="24" y="24" width="1152" height="582" rx="4" fill="none" stroke="#27272a" stroke-width="1.5"/>
  <line x1="24" y1="96" x2="1176" y2="96" stroke="#f59e0b" stroke-width="1" opacity="0.45"/>
  <text x="48" y="72" fill="#f59e0b" font-family="Consolas, Courier New, Menlo, monospace" font-size="10" font-weight="600" letter-spacing="0.2em">SOVEREIGN INGESTION · PART 03</text>
  <text x="48" y="152" fill="#f4f4f5" font-family="Segoe UI, Helvetica Neue, Arial, sans-serif" font-size="32" font-weight="700">Stateless inference</text>
  <text x="48" y="188" fill="#a1a1aa" font-family="Segoe UI, Helvetica Neue, Arial, sans-serif" font-size="14">POST /api/ai/chat · stream · quota metadata</text>
  
  <rect x="48" y="280" width="320" height="200" rx="6" fill="#0a0a0a" stroke="#27272a"/>
  <text x="208" y="320" fill="#a1a1aa" font-family="Consolas, Courier New, Menlo, monospace" font-size="11" text-anchor="middle">bounded context</text>
  <text x="208" y="342" fill="#71717a" font-family="Consolas, Courier New, Menlo, monospace" font-size="9" text-anchor="middle">ephemeral per request</text>
  <path d="M 378 380 L 458 380" stroke="rgba(245,158,11,0.4)" stroke-width="2"/>
  <polygon points="458,380 446,374 446,386" fill="#f59e0b"/>
  <rect x="468" y="300" width="264" height="160" rx="8" fill="#141414" stroke="#f59e0b" stroke-width="1.5"/>
  <text x="600" y="350" fill="#f59e0b" font-family="Consolas, Courier New, Menlo, monospace" font-size="12" font-weight="700" text-anchor="middle">route.ts</text>
  <text x="600" y="378" fill="#a1a1aa" font-family="Consolas, Courier New, Menlo, monospace" font-size="9" text-anchor="middle">no portfolio payload DB</text>
  <text x="600" y="400" fill="#71717a" font-family="Consolas, Courier New, Menlo, monospace" font-size="9" text-anchor="middle">Firestore/KV · quota only</text>
  <path d="M 742 380 L 822 380" stroke="rgba(245,158,11,0.4)" stroke-width="2"/>
  <polygon points="822,380 810,374 810,386" fill="#71717a"/>
  <rect x="832" y="320" width="320" height="120" rx="6" fill="#0a0a0a" stroke="#27272a"/>
  <text x="992" y="390" fill="#f4f4f5" font-family="Consolas, Courier New, Menlo, monospace" font-size="12" text-anchor="middle">LLM stream</text>
  <text x="48" y="598" fill="#71717a" font-family="Consolas, Courier New, Menlo, monospace" font-size="9" letter-spacing="0.06em">POCKET PORTFOLIO · SOVEREIGN INGESTION &amp; STATELESS INFERENCE</text>
</svg>