<?xml version="1.0" encoding="UTF-8"?>
<svg xmlns="http://www.w3.org/2000/svg" width="1200" height="630" viewBox="0 0 1200 630">
  <defs>
    <pattern id="grid" width="20" height="20" patternUnits="userSpaceOnUse">
      <path d="M 20 0 L 0 0 0 20" fill="none" stroke="#f59e0b" stroke-width="0.3" opacity="0.06"/>
    </pattern>
    <linearGradient id="glow" x1="100%" y1="0%" x2="0%" y2="100%">
      <stop offset="0%" style="stop-color:#f59e0b;stop-opacity:0.06"/>
      <stop offset="100%" style="stop-color:#f59e0b;stop-opacity:0"/>
    </linearGradient>
  </defs>
  <rect width="100%" height="100%" fill="#09090b"/>
  <rect width="100%" height="100%" fill="url(#grid)"/>
  <rect width="100%" height="100%" fill="url(#glow)"/>
  <rect x="24" y="24" width="1152" height="582" rx="4" fill="none" stroke="#27272a" stroke-width="1.5"/>
  <line x1="24" y1="96" x2="1176" y2="96" stroke="#f59e0b" stroke-width="1" opacity="0.45"/>
  <text x="48" y="72" fill="#f59e0b" font-family="Consolas, Courier New, Menlo, monospace" font-size="10" font-weight="600" letter-spacing="0.2em">SOVEREIGN INGESTION · PART 05</text>
  <text x="48" y="152" fill="#f4f4f5" font-family="Segoe UI, Helvetica Neue, Arial, sans-serif" font-size="32" font-weight="700">Ingestion interface</text>
  <text x="48" y="188" fill="#a1a1aa" font-family="Segoe UI, Helvetica Neue, Arial, sans-serif" font-size="14">@pocket-portfolio/importer · MIT · client parse</text>
  
  <rect x="48" y="280" width="200" height="180" rx="4" fill="#0a0a0a" stroke="#27272a"/>
  <text x="148" y="380" fill="#71717a" font-family="Consolas, Courier New, Menlo, monospace" font-size="11" text-anchor="middle">broker CSV</text>
  <path d="M 258 370 L 338 370" stroke="#f59e0b" stroke-width="2"/>
  <polygon points="338,370 326,364 326,376" fill="#f59e0b"/>
  <rect x="348" y="300" width="504" height="140" rx="8" fill="#141414" stroke="#f59e0b" stroke-width="1.5"/>
  <text x="600" y="340" fill="#f59e0b" font-family="Consolas, Courier New, Menlo, monospace" font-size="12" font-weight="700" text-anchor="middle">packages/importer</text>
  <text x="600" y="368" fill="#a1a1aa" font-family="Consolas, Courier New, Menlo, monospace" font-size="9" text-anchor="middle">adapters → normalize → Trade[]</text>
  <text x="600" y="390" fill="#71717a" font-family="Consolas, Courier New, Menlo, monospace" font-size="9" text-anchor="middle">universal inference · adversarial tests</text>
  <path d="M 862 370 L 942 370" stroke="rgba(245,158,11,0.4)" stroke-width="2"/>
  <rect x="952" y="320" width="200" height="100" rx="4" fill="#0a0a0a" stroke="#27272a"/>
  <text x="1052" y="380" fill="#a1a1aa" font-family="Consolas, Courier New, Menlo, monospace" font-size="10" text-anchor="middle">OpenBrokerCSV</text>
  <text x="48" y="598" fill="#71717a" font-family="Consolas, Courier New, Menlo, monospace" font-size="9" letter-spacing="0.06em">POCKET PORTFOLIO · SOVEREIGN INGESTION &amp; STATELESS INFERENCE</text>
</svg>