<svg xmlns="http://www.w3.org/2000/svg" viewBox="0 0 620 220" font-family="system-ui, -apple-system, Segoe UI, sans-serif" font-size="11" fill="#1e293b">
  <defs>
    <marker id="si-a2" markerWidth="8" markerHeight="6" refX="7" refY="3" orient="auto"><path d="M0 0 L8 3 L0 6 z" fill="#475569"/></marker>
  </defs>
  <!-- Left column: Browser -->
  <rect x="16" y="44" width="160" height="160" rx="8" fill="#f0f9ff" stroke="#0369a1" stroke-width="1.2"/>
  <text x="96" y="68" text-anchor="middle" font-weight="600">Client / Browser</text>
  <rect x="28" y="82" width="136" height="32" rx="4" fill="#fff" stroke="#475569" stroke-width="1"/>
  <text x="96" y="102" text-anchor="middle" font-size="10">IndexedDB</text>
  <rect x="28" y="120" width="136" height="32" rx="4" fill="#fff" stroke="#475569" stroke-width="1"/>
  <text x="96" y="140" text-anchor="middle" font-size="10">Redux Store</text>
  <rect x="28" y="158" width="136" height="32" rx="4" fill="#e0f2f1" stroke="#0f766e" stroke-width="1"/>
  <text x="96" y="178" text-anchor="middle" font-size="10">Context Builder</text>
  <!-- Middle: API -->
  <rect x="208" y="74" width="120" height="120" rx="8" fill="#fefce8" stroke="#a16207" stroke-width="1.2"/>
  <text x="268" y="98" text-anchor="middle" font-weight="600">API Route</text>
  <text x="268" y="118" text-anchor="middle" font-size="10">/api/ai/chat</text>
  <text x="268" y="145" text-anchor="middle" font-size="9" fill="#64748b">Sanitized Context</text>
  <text x="268" y="160" text-anchor="middle" font-size="9" fill="#64748b">+ User Message</text>
  <text x="268" y="182" text-anchor="middle" font-size="9" fill="#64748b">(gatekeeper)</text>
  <!-- Right: Gemini -->
  <rect x="360" y="44" width="244" height="160" rx="8" fill="#f8fafc" stroke="#475569" stroke-width="1.2"/>
  <text x="482" y="68" text-anchor="middle" font-weight="600">The Brain</text>
  <rect x="372" y="82" width="108" height="44" rx="4" fill="#fff" stroke="#475569" stroke-width="1"/>
  <text x="426" y="102" text-anchor="middle" font-size="10">Gemini 1.5</text>
  <rect x="488" y="82" width="108" height="44" rx="4" fill="#fff" stroke="#475569" stroke-width="1"/>
  <text x="542" y="102" text-anchor="middle" font-size="10">Google Search</text>
  <text x="542" y="116" text-anchor="middle" font-size="9" fill="#64748b">grounding</text>
  <!-- Arrows -->
  <path fill="none" d="M176 120 L208 120" stroke="#0f766e" stroke-width="2" marker-end="url(#si-a2)"/>
  <text x="192" y="112" text-anchor="middle" font-size="9" fill="#0f766e">Sanitized Context</text>
  <path fill="none" d="M328 134 L360 134" stroke="#475569" stroke-width="1.2" marker-end="url(#si-a2)"/>
  <path fill="none" d="M482 204 L482 184 L268 184 L268 194" stroke="#475569" stroke-width="1.2" marker-end="url(#si-a2)"/>
  <text x="375" y="178" text-anchor="middle" font-size="9" fill="#475569">Streaming tokens</text>
  <!-- Title -->
  <text x="310" y="24" text-anchor="middle" font-weight="600" font-size="12">Figure 2 — Hybrid Architecture</text>
</svg>
