<svg xmlns="http://www.w3.org/2000/svg" viewBox="0 0 420 240" font-family="system-ui, -apple-system, Segoe UI, sans-serif" font-size="11" fill="#1e293b">
  <!-- Title -->
  <text x="210" y="28" text-anchor="middle" font-weight="600" font-size="12">Figure 7 — React Component Tree</text>
  <!-- Tree: root centered -->
  <rect x="135" y="44" width="150" height="40" rx="6" fill="#e0f2f1" stroke="#0f766e" stroke-width="1.2"/>
  <text x="210" y="69" text-anchor="middle" font-weight="600">PocketAnalystProvider</text>
  <path fill="none" d="M210 84 L210 94 L105 94 L105 114" stroke="#475569" stroke-width="1.2"/>
  <path fill="none" d="M210 84 L210 94 L315 94 L315 114" stroke="#475569" stroke-width="1.2"/>
  <!-- FAB -->
  <rect x="55" y="114" width="100" height="36" rx="6" fill="#f8fafc" stroke="#475569" stroke-width="1.2"/>
  <text x="105" y="136" text-anchor="middle" font-size="10">AskAIFab</text>
  <!-- Modal -->
  <rect x="260" y="114" width="110" height="36" rx="6" fill="#f8fafc" stroke="#475569" stroke-width="1.2"/>
  <text x="315" y="136" text-anchor="middle" font-size="10">AskAIModal</text>
  <path fill="none" d="M315 150 L315 160 L110 160 L110 170" stroke="#475569" stroke-width="1.2"/>
  <path fill="none" d="M315 150 L315 160 L230 160 L230 170" stroke="#475569" stroke-width="1.2"/>
  <path fill="none" d="M315 150 L315 160 L350 160 L350 170" stroke="#475569" stroke-width="1.2"/>
  <!-- Modal children: fit in viewBox 420 -->
  <rect x="60" y="170" width="100" height="28" rx="4" fill="#f1f5f9" stroke="#94a3b8" stroke-width="1"/>
  <text x="110" y="188" text-anchor="middle" font-size="9">header (usage)</text>
  <rect x="170" y="170" width="120" height="28" rx="4" fill="#f1f5f9" stroke="#94a3b8" stroke-width="1"/>
  <text x="230" y="188" text-anchor="middle" font-size="9">messages, input, send</text>
  <rect x="300" y="170" width="100" height="28" rx="4" fill="#f1f5f9" stroke="#94a3b8" stroke-width="1"/>
  <text x="350" y="188" text-anchor="middle" font-size="9">attachment</text>
</svg>
