<svg xmlns="http://www.w3.org/2000/svg" viewBox="0 0 560 248" font-family="system-ui, -apple-system, Segoe UI, sans-serif" font-size="11" fill="#1e293b">
  <defs>
    <marker id="si-a8" markerWidth="8" markerHeight="6" refX="7" refY="3" orient="auto"><path d="M0 0 L8 3 L0 6 z" fill="#475569"/></marker>
  </defs>
  <!-- Title centered -->
  <text x="280" y="28" text-anchor="middle" font-weight="600" font-size="12">Figure 8 — Cost / Unit Economics</text>
  <!-- Flow centered -->
  <rect x="40" y="72" width="64" height="36" rx="6" fill="#f8fafc" stroke="#475569" stroke-width="1.2"/>
  <text x="72" y="94" text-anchor="middle" font-size="10">User</text>
  <path fill="none" d="M104 90 L124 90" stroke="#475569" stroke-width="1.2" marker-end="url(#si-a8)"/>
  <rect x="124" y="72" width="72" height="36" rx="6" fill="#fefce8" stroke="#a16207" stroke-width="1.2"/>
  <text x="160" y="94" text-anchor="middle" font-size="9">Check tier</text>
  <path fill="none" d="M196 90 L216 90" stroke="#475569" stroke-width="1.2" marker-end="url(#si-a8)"/>
  <rect x="216" y="72" width="80" height="36" rx="6" fill="#fefce8" stroke="#a16207" stroke-width="1.2"/>
  <text x="256" y="94" text-anchor="middle" font-size="9">Check quota</text>
  <path fill="none" d="M296 90 L316 90" stroke="#475569" stroke-width="1.2" marker-end="url(#si-a8)"/>
  <rect x="316" y="72" width="88" height="36" rx="6" fill="#e0f2f1" stroke="#0f766e" stroke-width="1.2"/>
  <text x="360" y="94" text-anchor="middle" font-size="9">Select model</text>
  <path fill="none" d="M404 90 L424 90" stroke="#475569" stroke-width="1.2" marker-end="url(#si-a8)"/>
  <rect x="424" y="72" width="56" height="36" rx="6" fill="#f8fafc" stroke="#475569" stroke-width="1.2"/>
  <text x="452" y="94" text-anchor="middle" font-size="9">Call API</text>
  <path fill="none" d="M480 90 L500 90" stroke="#475569" stroke-width="1.2" marker-end="url(#si-a8)"/>
  <rect x="500" y="72" width="40" height="36" rx="6" fill="#f1f5f9" stroke="#475569" stroke-width="1.2"/>
  <text x="520" y="94" text-anchor="middle" font-size="9">+1</text>
  <!-- Table: narrower and centered (80px margin each side), 4 equal columns -->
  <rect x="80" y="132" width="400" height="80" rx="4" fill="#f8fafc" stroke="#cbd5e1" stroke-width="1"/>
  <line x1="80" y1="154" x2="480" y2="154" stroke="#e2e8f0" stroke-width="1"/>
  <line x1="180" y1="132" x2="180" y2="212" stroke="#e2e8f0" stroke-width="1"/>
  <line x1="280" y1="132" x2="280" y2="212" stroke="#e2e8f0" stroke-width="1"/>
  <line x1="380" y1="132" x2="380" y2="212" stroke="#e2e8f0" stroke-width="1"/>
  <!-- Header: column centers 130, 230, 330, 430 -->
  <text x="130" y="148" text-anchor="middle" font-size="9" font-weight="600">Tier</text>
  <text x="230" y="148" text-anchor="middle" font-size="9" font-weight="600">Quota</text>
  <text x="330" y="148" text-anchor="middle" font-size="9" font-weight="600">Model</text>
  <text x="430" y="148" text-anchor="middle" font-size="9" font-weight="600">Attachment</text>
  <!-- Row 1 -->
  <text x="130" y="172" text-anchor="middle" font-size="9">Free</text>
  <text x="230" y="172" text-anchor="middle" font-size="9">N/month</text>
  <text x="330" y="172" text-anchor="middle" font-size="9">Flash</text>
  <text x="430" y="172" text-anchor="middle" font-size="9">Limited</text>
  <!-- Row 2 -->
  <text x="130" y="196" text-anchor="middle" font-size="9">Paid</text>
  <text x="230" y="196" text-anchor="middle" font-size="9">Unlimited</text>
  <text x="330" y="196" text-anchor="middle" font-size="9">Pro</text>
  <text x="430" y="196" text-anchor="middle" font-size="9">Yes</text>
</svg>
