<svg width="1024" height="1024" viewBox="0 0 256 256" xmlns="http://www.w3.org/2000/svg">
  <!--
    Pocket Portfolio: SOCIAL ONLY square monogram.

    Full-bleed dark surface with NO rounded corners so platforms that
    apply a circular avatar mask (LinkedIn, X, Meta) trim the corners
    cleanly instead of revealing dark cutouts at the inscribed circle.

    Do not reference this asset from product UI. Use
    /brand/pp-monogram-amber.svg or /brand/pp-icon.png there.

    Safe-zone: monogram occupies ~60 percent of the canvas, well inside
    the inscribed circle (r=128), so the mark survives any platform's
    circular crop without clipping.
  -->
  <rect width="256" height="256" fill="#0b0d10"/>
  <g fill="#f59e0b">
    <path d="M62 78a20 20 0 0 1 20-20h52c28 0 44 16 44 40s-16 40-44 40H122v40a20 20 0 0 1-20 20H82a20 20 0 0 1-20-20V78zm40 20v20h32c8 0 12-4 12-10s-4-10-12-10h-32z"/>
    <rect x="144" y="138" width="36" height="36" rx="8" opacity=".9"/>
  </g>
</svg>
