<svg xmlns="http://www.w3.org/2000/svg" viewBox="0 0 580 140" font-family="system-ui, -apple-system, Segoe UI, sans-serif" font-size="11" fill="#1e293b">
  <defs>
    <marker id="si-a6" markerWidth="8" markerHeight="6" refX="7" refY="3" orient="auto"><path d="M0 0 L8 3 L0 6 z" fill="#475569"/></marker>
  </defs>
  <!-- Title -->
  <text x="290" y="28" text-anchor="middle" font-weight="600" font-size="12">Figure 6 — Browser-Side ETL</text>
  <!-- Flow centered: shift +10 so 20px margin each side (content 30..570 in 580) -->
  <rect x="30" y="52" width="80" height="48" rx="6" fill="#f8fafc" stroke="#475569" stroke-width="1.2"/>
  <text x="70" y="78" text-anchor="middle" font-size="10">User drops</text>
  <text x="70" y="92" text-anchor="middle" font-size="10">file</text>
  <path fill="none" d="M110 76 L138 76" stroke="#475569" stroke-width="1.2" marker-end="url(#si-a6)"/>
  <rect x="138" y="52" width="100" height="48" rx="6" fill="#e0f2f1" stroke="#0f766e" stroke-width="1.2"/>
  <text x="188" y="72" text-anchor="middle" font-size="9">FileReader +</text>
  <text x="188" y="86" text-anchor="middle" font-size="9">PapaParse</text>
  <path fill="none" d="M238 76 L266 76" stroke="#475569" stroke-width="1.2" marker-end="url(#si-a6)"/>
  <rect x="266" y="52" width="88" height="48" rx="6" fill="#f8fafc" stroke="#475569" stroke-width="1.2"/>
  <text x="310" y="78" text-anchor="middle" font-size="10">Text / Summary</text>
  <path fill="none" d="M354 76 L382 76" stroke="#475569" stroke-width="1.2" marker-end="url(#si-a6)"/>
  <rect x="382" y="52" width="88" height="48" rx="6" fill="#fefce8" stroke="#a16207" stroke-width="1.2"/>
  <text x="426" y="72" text-anchor="middle" font-size="9">Append to</text>
  <text x="426" y="86" text-anchor="middle" font-size="9">request body</text>
  <path fill="none" d="M470 76 L498 76" stroke="#475569" stroke-width="1.2" marker-end="url(#si-a6)"/>
  <rect x="498" y="52" width="72" height="48" rx="6" fill="#f8fafc" stroke="#475569" stroke-width="1.2"/>
  <text x="534" y="78" text-anchor="middle" font-size="10">API receives</text>
  <text x="534" y="92" text-anchor="middle" font-size="10">text only</text>
  <text x="290" y="128" text-anchor="middle" font-size="9" fill="#64748b">No server-side file store</text>
</svg>
