<?xml version="1.0" encoding="UTF-8"?>
<svg xmlns="http://www.w3.org/2000/svg" viewBox="0 0 1920 1200" width="1920" height="1200">

  <defs>
    <linearGradient id="bgMesh" x1="0%" y1="0%" x2="100%" y2="100%">
      <stop offset="0%" stop-color="#0e1218"/>
      <stop offset="50%" stop-color="#06080b"/>
      <stop offset="100%" stop-color="#030508"/>
    </linearGradient>
    <radialGradient id="spotR" cx="78%" cy="42%" r="50%">
      <stop offset="0%" stop-color="#f59e0b" stop-opacity="0.14"/>
      <stop offset="55%" stop-color="#f59e0b" stop-opacity="0.04"/>
      <stop offset="100%" stop-color="#f59e0b" stop-opacity="0"/>
    </radialGradient>
    <radialGradient id="spotL" cx="18%" cy="55%" r="45%">
      <stop offset="0%" stop-color="#3b4a5c" stop-opacity="0.15"/>
      <stop offset="100%" stop-color="#000" stop-opacity="0"/>
    </radialGradient>
    <linearGradient id="glass" x1="0%" y1="0%" x2="0%" y2="100%">
      <stop offset="0%" stop-color="#1a2430" stop-opacity="0.95"/>
      <stop offset="100%" stop-color="#121820" stop-opacity="0.88"/>
    </linearGradient>
    <linearGradient id="shieldFill" x1="50%" y1="0%" x2="50%" y2="100%">
      <stop offset="0%" stop-color="#1a2430"/>
      <stop offset="40%" stop-color="#151c26"/>
      <stop offset="100%" stop-color="#0a0e14"/>
    </linearGradient>
    <linearGradient id="amberSheen" x1="0%" y1="0%" x2="100%" y2="0%">
      <stop offset="0%" stop-color="#d97706" stop-opacity="0"/>
      <stop offset="50%" stop-color="#fbbf24"/>
      <stop offset="100%" stop-color="#d97706" stop-opacity="0"/>
    </linearGradient>
    <filter id="glow" x="-80%" y="-80%" width="260%" height="260%">
      <feGaussianBlur stdDeviation="18" result="b"/>
      <feMerge><feMergeNode in="b"/><feMergeNode in="SourceGraphic"/></feMerge>
    </filter>
    <filter id="softShadow" x="-30%" y="-20%" width="160%" height="160%">
      <feDropShadow dx="0" dy="16" stdDeviation="24" flood-color="#000" flood-opacity="0.65"/>
    </filter>
    <filter id="txt" x="-40%" y="-40%" width="180%" height="180%">
      <feDropShadow dx="0" dy="2" stdDeviation="4" flood-color="#000" flood-opacity="1"/>
    </filter>
    <symbol id="sym-ingest" viewBox="0 0 128 128">
      <rect x="20" y="36" width="88" height="56" rx="12" fill="#121820" stroke="#f59e0b" stroke-width="4"/>
      <path d="M 40 62 L 58 78 L 92 48" fill="none" stroke="#f8fafc" stroke-width="5" stroke-linecap="round"/>
      <path d="M 64 22 L 64 36 M 50 22 L 78 22" stroke="#fbbf24" stroke-width="4" stroke-linecap="round"/>
    </symbol>
    <symbol id="sym-infer" viewBox="0 0 128 128">
      <rect x="24" y="24" width="80" height="80" rx="18" fill="#121820" stroke="#f59e0b" stroke-width="4"/>
      <path d="M 64 44 C 78 44 88 54 88 64 C 88 78 78 88 64 88 C 50 88 40 78 40 64 C 40 54 50 44 64 44 Z" fill="none" stroke="#f8fafc" stroke-width="3"/>
      <circle cx="64" cy="64" r="8" fill="#f59e0b"/>
      <path d="M 64 52 L 64 76 M 52 64 L 76 64" stroke="#f8fafc" stroke-width="3" stroke-linecap="round" opacity="0.5"/>
    </symbol>
    <symbol id="sym-audit" viewBox="0 0 128 128">
      <path d="M 64 16 L 104 36 V 68 Q 104 100 64 112 Q 24 100 24 68 V 36 Z" fill="#121820" stroke="#f59e0b" stroke-width="4"/>
      <path d="M 46 64 L 58 78 L 86 50" fill="none" stroke="#f8fafc" stroke-width="5" stroke-linecap="round"/>
    </symbol>
  </defs>
  <rect width="1920" height="1200" fill="url(#bgMesh)"/>
  <rect width="1920" height="1200" fill="url(#spotL)"/>
  <rect width="1920" height="1200" fill="url(#spotR)"/>
  
  
  <rect x="80" y="88" width="4" height="48" rx="2" fill="#f59e0b"/>
  <text x="100" y="124" fill="#fbbf24" font-family="Segoe UI,system-ui,sans-serif" font-size="22" font-weight="700" letter-spacing="0.14em" filter="url(#txt)">EXECUTIVE BRIEFING</text>
  <text x="80" y="218" fill="#f8fafc" font-family="Segoe UI,system-ui,sans-serif" font-size="58" font-weight="800" letter-spacing="-0.02em" filter="url(#txt)">Clean-room</text>
  <text x="80" y="278" fill="#f8fafc" font-family="Segoe UI,system-ui,sans-serif" font-size="52" font-weight="800" letter-spacing="-0.02em" filter="url(#txt)">conversation</text>
  <text x="80" y="332" fill="#e2e8f0" font-family="Segoe UI,system-ui,sans-serif" font-size="30" font-weight="600" filter="url(#txt)">Procurement · Legal</text>
  <text x="80" y="374" fill="#e2e8f0" font-family="Segoe UI,system-ui,sans-serif" font-size="30" font-weight="600" filter="url(#txt)">Engineering · Policy</text>
  <rect x="80" y="398" width="674.88" height="44" rx="22" fill="#121820" stroke="#2d3a4a" stroke-width="1"/>
  <circle cx="102" cy="420" r="6" fill="#f59e0b"/>
  <text x="120" y="428" fill="#f8fafc" font-family="Segoe UI,system-ui,sans-serif" font-size="24" font-weight="600">30-minute audit mapping</text>
  <rect x="80" y="450" width="674.88" height="44" rx="22" fill="#121820" stroke="#2d3a4a" stroke-width="1"/>
  <circle cx="102" cy="472" r="6" fill="#f59e0b"/>
  <text x="120" y="480" fill="#f8fafc" font-family="Segoe UI,system-ui,sans-serif" font-size="24" font-weight="600">Clear next steps</text>
  <g transform="translate(924.48, 88)" filter="url(#softShadow)">
    <rect x="0" y="0" width="915.52" height="1008" rx="28" fill="url(#glass)" stroke="#f59e0b" stroke-width="4"/>
    <ellipse cx="274.656" cy="252" rx="120" ry="80" fill="#f59e0b" opacity="0.1"/>
    <ellipse cx="686.64" cy="705.5999999999999" rx="140" ry="90" fill="#f59e0b" opacity="0.12"/>
    <rect x="32" y="40" width="851.52" height="12" rx="6" fill="url(#amberSheen)"/>
    <rect x="32" y="68" width="280" height="8" rx="4" fill="#2d3a4a"/>
    <rect x="32" y="453.6" width="851.52" height="1" fill="#2d3a4a" opacity="0.5"/>
    <circle cx="320.43199999999996" cy="624.96" r="36" fill="#1a2430" stroke="#f59e0b" stroke-width="3"/>
    <circle cx="595.088" cy="624.96" r="36" fill="#1a2430" stroke="#f59e0b" stroke-width="3"/>
    <rect x="384.5184" y="786.24" width="146.4832" height="8" rx="4" fill="#f59e0b" opacity="0.6"/>
  </g>
  
  <rect x="72" y="1088" width="1776" height="1" fill="#2d3a4a" opacity="0.6"/>
  <rect x="72" y="1120" width="520" height="3" rx="1.5" fill="#f59e0b"/>
  <text x="72" y="1156" fill="#e2e8f0" font-family="Segoe UI,system-ui,sans-serif" font-size="28" font-weight="700" letter-spacing="0.12em">REQUEST AN EXECUTIVE BRIEFING</text>
</svg>