<?xml version="1.0" encoding="UTF-8"?>
<svg xmlns="http://www.w3.org/2000/svg" viewBox="0 0 1920 1440" width="1920" height="1440">

  <defs>
    <linearGradient id="bgMesh" x1="0%" y1="0%" x2="100%" y2="100%">
      <stop offset="0%" stop-color="#0e1218"/>
      <stop offset="50%" stop-color="#06080b"/>
      <stop offset="100%" stop-color="#030508"/>
    </linearGradient>
    <radialGradient id="spotR" cx="78%" cy="42%" r="50%">
      <stop offset="0%" stop-color="#f59e0b" stop-opacity="0.14"/>
      <stop offset="55%" stop-color="#f59e0b" stop-opacity="0.04"/>
      <stop offset="100%" stop-color="#f59e0b" stop-opacity="0"/>
    </radialGradient>
    <radialGradient id="spotL" cx="18%" cy="55%" r="45%">
      <stop offset="0%" stop-color="#3b4a5c" stop-opacity="0.15"/>
      <stop offset="100%" stop-color="#000" stop-opacity="0"/>
    </radialGradient>
    <linearGradient id="glass" x1="0%" y1="0%" x2="0%" y2="100%">
      <stop offset="0%" stop-color="#1a2430" stop-opacity="0.95"/>
      <stop offset="100%" stop-color="#121820" stop-opacity="0.88"/>
    </linearGradient>
    <linearGradient id="shieldFill" x1="50%" y1="0%" x2="50%" y2="100%">
      <stop offset="0%" stop-color="#1a2430"/>
      <stop offset="40%" stop-color="#151c26"/>
      <stop offset="100%" stop-color="#0a0e14"/>
    </linearGradient>
    <linearGradient id="amberSheen" x1="0%" y1="0%" x2="100%" y2="0%">
      <stop offset="0%" stop-color="#d97706" stop-opacity="0"/>
      <stop offset="50%" stop-color="#fbbf24"/>
      <stop offset="100%" stop-color="#d97706" stop-opacity="0"/>
    </linearGradient>
    <filter id="glow" x="-80%" y="-80%" width="260%" height="260%">
      <feGaussianBlur stdDeviation="18" result="b"/>
      <feMerge><feMergeNode in="b"/><feMergeNode in="SourceGraphic"/></feMerge>
    </filter>
    <filter id="softShadow" x="-30%" y="-20%" width="160%" height="160%">
      <feDropShadow dx="0" dy="16" stdDeviation="24" flood-color="#000" flood-opacity="0.65"/>
    </filter>
    <filter id="txt" x="-40%" y="-40%" width="180%" height="180%">
      <feDropShadow dx="0" dy="2" stdDeviation="4" flood-color="#000" flood-opacity="1"/>
    </filter>
    <symbol id="sym-ingest" viewBox="0 0 128 128">
      <rect x="20" y="36" width="88" height="56" rx="12" fill="#121820" stroke="#f59e0b" stroke-width="4"/>
      <path d="M 40 62 L 58 78 L 92 48" fill="none" stroke="#f8fafc" stroke-width="5" stroke-linecap="round"/>
      <path d="M 64 22 L 64 36 M 50 22 L 78 22" stroke="#fbbf24" stroke-width="4" stroke-linecap="round"/>
    </symbol>
    <symbol id="sym-infer" viewBox="0 0 128 128">
      <rect x="24" y="24" width="80" height="80" rx="18" fill="#121820" stroke="#f59e0b" stroke-width="4"/>
      <path d="M 64 44 C 78 44 88 54 88 64 C 88 78 78 88 64 88 C 50 88 40 78 40 64 C 40 54 50 44 64 44 Z" fill="none" stroke="#f8fafc" stroke-width="3"/>
      <circle cx="64" cy="64" r="8" fill="#f59e0b"/>
      <path d="M 64 52 L 64 76 M 52 64 L 76 64" stroke="#f8fafc" stroke-width="3" stroke-linecap="round" opacity="0.5"/>
    </symbol>
    <symbol id="sym-audit" viewBox="0 0 128 128">
      <path d="M 64 16 L 104 36 V 68 Q 104 100 64 112 Q 24 100 24 68 V 36 Z" fill="#121820" stroke="#f59e0b" stroke-width="4"/>
      <path d="M 46 64 L 58 78 L 86 50" fill="none" stroke="#f8fafc" stroke-width="5" stroke-linecap="round"/>
    </symbol>
  </defs>
  <rect width="1920" height="1440" fill="url(#bgMesh)"/>
  <rect width="1920" height="1440" fill="url(#spotL)"/>
  <rect width="1920" height="1440" fill="url(#spotR)"/>
  
  <text x="72" y="120" fill="#f8fafc" font-size="40" font-weight="800" font-family="system-ui,sans-serif" filter="url(#txt)">One substrate · Three promises</text>
  <text x="72" y="168" fill="#e2e8f0" font-size="30" font-weight="600" font-family="system-ui,sans-serif" filter="url(#txt)">Clear for legal · Precise for engineering</text>
  
  <g filter="url(#softShadow)">
    <rect x="72" y="172" width="570.6666666666666" height="1128" rx="24" fill="url(#glass)" stroke="#2d3a4a" stroke-width="1"/>
    <rect x="88" y="188" width="538.6666666666666" height="473.76" rx="16" fill="#06080b" fill-opacity="0.6"/>
    <use href="#sym-ingest" x="293.3333333333333" y="468.96000000000004" width="128" height="128"/>
    <text x="357.3333333333333" y="871.36" text-anchor="middle" fill="#f8fafc" font-size="34" font-weight="800" letter-spacing="0.06em" font-family="system-ui,sans-serif" filter="url(#txt)">INGESTION</text>
    <text x="357.3333333333333" y="919.36" text-anchor="middle" fill="#e2e8f0" font-size="26" font-weight="600" font-family="system-ui,sans-serif" filter="url(#txt)">Broker data parsed locally</text>
    <rect x="112" y="1264" width="490.66666666666663" height="8" rx="4" fill="#f59e0b"/>
  </g>
  <g filter="url(#softShadow)">
    <rect x="674.6666666666666" y="172" width="570.6666666666666" height="1128" rx="24" fill="url(#glass)" stroke="#2d3a4a" stroke-width="1"/>
    <rect x="690.6666666666666" y="188" width="538.6666666666666" height="473.76" rx="16" fill="#06080b" fill-opacity="0.6"/>
    <use href="#sym-infer" x="896" y="468.96000000000004" width="128" height="128"/>
    <text x="960" y="871.36" text-anchor="middle" fill="#f8fafc" font-size="34" font-weight="800" letter-spacing="0.06em" font-family="system-ui,sans-serif" filter="url(#txt)">INFERENCE</text>
    <text x="960" y="919.36" text-anchor="middle" fill="#e2e8f0" font-size="26" font-weight="600" font-family="system-ui,sans-serif" filter="url(#txt)">AI without persistent memory</text>
    <rect x="714.6666666666666" y="1264" width="490.66666666666663" height="8" rx="4" fill="#f59e0b"/>
  </g>
  <g filter="url(#softShadow)">
    <rect x="1277.3333333333333" y="172" width="570.6666666666666" height="1128" rx="24" fill="url(#glass)" stroke="#2d3a4a" stroke-width="1"/>
    <rect x="1293.3333333333333" y="188" width="538.6666666666666" height="473.76" rx="16" fill="#06080b" fill-opacity="0.6"/>
    <use href="#sym-audit" x="1498.6666666666665" y="468.96000000000004" width="128" height="128"/>
    <text x="1562.6666666666665" y="871.36" text-anchor="middle" fill="#f8fafc" font-size="34" font-weight="800" letter-spacing="0.06em" font-family="system-ui,sans-serif" filter="url(#txt)">AUDIT</text>
    <text x="1562.6666666666665" y="919.36" text-anchor="middle" fill="#e2e8f0" font-size="26" font-weight="600" font-family="system-ui,sans-serif" filter="url(#txt)">Smaller compliance perimeter</text>
    <rect x="1317.3333333333333" y="1264" width="490.66666666666663" height="8" rx="4" fill="#f59e0b"/>
  </g>
  
  <rect x="72" y="1328" width="1776" height="1" fill="#2d3a4a" opacity="0.6"/>
  <rect x="72" y="1360" width="520" height="3" rx="1.5" fill="#f59e0b"/>
  <text x="72" y="1396" fill="#e2e8f0" font-family="Segoe UI,system-ui,sans-serif" font-size="28" font-weight="700" letter-spacing="0.12em">THREE BOARD-LEVEL GUARANTEES</text>
</svg>